<svg id="Layer_1" data-name="Layer 1" xmlns="http://www.w3.org/2000/svg" viewBox="0 0 141.11 24"><defs><style>.cls-1{fill:#212e39;}</style></defs><path class="cls-1" d="M0,.29H14.32L27,17.66l.16-.09V.29h8.59V23.55H22L9.2,5.79H9.07V23.55H0Zm50.38,0H62.57L76.86,23.55H65.57l-2.42-4.44H48.58l-2.41,4.44H36.06ZM60.74,14.57,56.07,4.92h-.15l-4.8,9.65Zm12.93,1.74H83.78A2.58,2.58,0,0,0,85,18.53a7.35,7.35,0,0,0,4,1.06,10.08,10.08,0,0,0,4.22-.67c1.06-.39,1.67-1,1.67-1.64A1.55,1.55,0,0,0,94.2,16a4.65,4.65,0,0,0-1.8-.87,15.62,15.62,0,0,0-2.29-.48c-.9-.19-1.67-.29-2.41-.39-2.86-.48-5.28-.86-7.08-1.35A13.69,13.69,0,0,1,76.12,11a4.36,4.36,0,0,1-1.83-3.66,4.9,4.9,0,0,1,2-4.15A13.08,13.08,0,0,1,81.81.77a39.36,39.36,0,0,1,8-.77c4.83,0,8.59.67,10.85,1.83s3.6,2.8,3.6,4.83v.68H94.2a2.1,2.1,0,0,0-1.22-2,6.59,6.59,0,0,0-3.61-.78,6,6,0,0,0-3.18.68c-.9.39-1.35,1-1.35,1.55,0,1.15,2,2,6,2.6l6,.87a31.82,31.82,0,0,1,4,1.06,8.45,8.45,0,0,1,3.32,2,5.47,5.47,0,0,1,1.38,3.18,5.31,5.31,0,0,1-2.12,4.25,15.23,15.23,0,0,1-5.89,2.51,41,41,0,0,1-8,.74,44.47,44.47,0,0,1-8.88-.74,11.58,11.58,0,0,1-5.27-2.61,5.73,5.73,0,0,1-1.84-4.34m33.08-16h10.07V10.52H117L128.43.29H140L127.69,10.52l13.42,13H128.72L117,11.19h-.16V23.55H106.75Z"/></svg>