<svg width="671" height="229" viewBox="0 0 671 229" fill="none" xmlns="http://www.w3.org/2000/svg">
<path d="M58.2331 164.39H41.8384C28.6691 164.39 18.9746 160.696 18.9746 155.848C18.9746 152.386 23.5954 149.385 30.0645 148.923C34.4543 150.77 39.0751 151.693 44.3891 151.693C64.9425 151.693 80.4222 136.236 80.4222 115.459C80.4222 109.457 79.036 103.686 76.4945 98.6071H91.965V81.5427H57.0778C53.1502 80.1576 48.7604 79.4651 44.3706 79.4651C23.8172 79.4651 8.10642 94.932 8.10642 115.468C8.10642 122.625 9.95475 129.319 13.1893 134.62C5.11213 138.775 0.0292358 146.162 0.0292358 154.463C0.0292358 163.005 5.11213 170.614 13.6606 175.692C8.34671 181.002 5.34318 188.158 5.34318 195.998C5.34318 215.149 23.3551 229 48.5386 229C74.4059 229 95.1903 214.456 95.1903 194.844C95.1903 177.548 79.2485 164.39 58.2331 164.39ZM44.3798 97.9238C54.3146 97.9238 61.9297 105.542 61.9297 115.459C61.9297 125.616 54.3054 133.225 44.3798 133.225C34.214 133.225 26.5989 125.607 26.5989 115.459C26.5897 105.542 34.214 97.9238 44.3798 97.9238ZM48.2983 211.003C33.5117 211.003 23.5862 205.001 23.5862 196.007C23.5862 188.389 31.2105 182.618 41.3671 182.618H58.6859C69.0827 182.618 76.9289 188.158 76.9289 195.084C76.9381 204.548 64.0091 211.003 48.2983 211.003Z" fill="black"/>
<path d="M150.622 79.4651C133.525 79.4651 116.899 87.7756 108.581 100.925L125.669 110.851C130.059 103.695 139.763 98.3855 150.381 98.3855C162.395 98.3855 169.78 104.849 169.78 114.997V118.46C165.39 117.768 160.076 117.306 154.531 117.306C126.122 117.306 107.417 129.772 107.417 147.538C107.417 163.919 123.128 175.923 142.064 175.923C156.157 175.923 165.39 169.459 169.78 165.073V173.845H189.871V113.843C189.88 94.2302 173.716 79.4651 150.622 79.4651ZM169.789 146.162C166.323 151.241 158.699 158.397 145.308 158.397C134.68 158.397 126.834 153.78 126.834 147.085C126.834 139.237 137.924 133.465 153.856 133.465C159.632 133.465 165.177 134.158 169.798 135.081V146.162H169.789Z" fill="black"/>
<path d="M342.08 79.4651C327.062 79.4651 317.137 86.1597 312.516 90.5459V0.763977H292.425V81.5335H243.463V51.0799L223.371 61.4681V81.5427H205.821V99.5397H223.371V151.232C223.371 165.313 233.537 175.923 247.621 175.923C256.17 175.923 265.864 171.999 274.413 164.612L262.399 150.299C258.471 154.223 253.157 156.994 250.154 156.994C246.226 156.994 243.453 153.531 243.453 148.914V99.5305H292.416V173.846H312.507L312.276 109.919C316.203 105.533 324.059 98.3763 337.219 98.3763C352.237 98.3763 361.7 106.687 361.7 120.067V173.836H381.791V115.45C381.81 94.9228 364.953 79.4651 342.08 79.4651Z" fill="black"/>
<path d="M451.325 79.4651C424.072 79.4651 403.518 100.001 403.518 127.463C403.518 155.156 424.996 175.923 453.867 175.923C472.341 175.923 488.283 167.382 496.369 154.233L479.965 144.999C475.113 152.847 465.179 157.464 453.867 157.464C438.156 157.464 426.151 148.231 422.917 134.85H498.448C498.911 132.542 499.142 130.003 499.142 127.694C499.142 100.232 478.819 79.4651 451.325 79.4651ZM423.61 118.691C427.075 106.225 437.934 97.9238 451.325 97.9238C464.726 97.9238 475.575 106.234 479.041 118.691H423.61Z" fill="black"/>
<path d="M541.173 96.0771V81.5428H521.082V173.855H541.173V115.699C545.101 109.235 554.342 98.3948 570.275 98.3948C573.741 98.3948 576.975 99.0873 580.21 101.165L586.91 82.2446C580.672 80.3978 576.051 79.4744 571.661 79.4744C556.422 79.4652 546.025 89.8441 541.173 96.0771Z" fill="black"/>
<path d="M616.243 106.465C616.243 101.387 622.943 97.4621 632.175 97.4621C642.11 97.4621 648.348 101.848 651.573 108.543L668.661 98.6164C661.961 87.0739 649.494 79.4651 632.628 79.4651C611.15 79.4651 596.133 91.7001 596.133 108.312C596.133 139.698 650.178 132.773 650.178 147.778C650.178 153.78 642.554 157.935 632.397 157.935C621.769 157.935 614.847 153.549 611.381 146.855L594.294 156.55C601.225 168.324 614.385 175.932 632.175 175.932C654.346 175.932 670.288 163.697 670.288 146.162C670.288 114.083 616.243 120.769 616.243 106.465Z" fill="black"/>
</svg>
